HIERARCHY
ROOT Hips
{
	OFFSET 0.00000 0.00000 0.00000
	CHANNELS 6 Xposition Yposition Zposition Zrotation Yrotation Xrotation 
	JOINT LHipJoint
	{
		OFFSET 0 0 0
		CHANNELS 3 Zrotation Yrotation Xrotation
		JOINT LeftUpLeg
		{
			OFFSET 1.57093 -1.69714 0.87455
			CHANNELS 3 Zrotation Yrotation Xrotation
			JOINT LeftLeg
			{
				OFFSET 2.48056 -6.81529 0.00000
				CHANNELS 3 Zrotation Yrotation Xrotation
				JOINT LeftFoot
				{
					OFFSET 2.62558 -7.21374 0.00000
					CHANNELS 3 Zrotation Yrotation Xrotation
					JOINT LeftToeBase
					{
						OFFSET 0.17911 -0.49210 2.16707
						CHANNELS 3 Zrotation Yrotation Xrotation
						End Site
						{
							OFFSET 0.00000 -0.00000 1.11848
						}
					}
				}
			}
		}
	}
	JOINT RHipJoint
	{
		OFFSET 0 0 0
		CHANNELS 3 Zrotation Yrotation Xrotation
		JOINT RightUpLeg
		{
			OFFSET -1.69739 -1.69715 0.87455
			CHANNELS 3 Zrotation Yrotation Xrotation
			JOINT RightLeg
			{
				OFFSET -2.33658 -6.41972 0.00000
				CHANNELS 3 Zrotation Yrotation Xrotation
				JOINT RightFoot
				{
					OFFSET -2.60856 -7.16696 0.00000
					CHANNELS 3 Zrotation Yrotation Xrotation
					JOINT RightToeBase
					{
						OFFSET -0.20854 -0.57296 2.11053
						CHANNELS 3 Zrotation Yrotation Xrotation
						End Site
						{
							OFFSET -0.00000 -0.00000 1.09848
						}
					}
				}
			}
		}
	}
	JOINT LowerBack
	{
		OFFSET 0 0 0
		CHANNELS 3 Zrotation Yrotation Xrotation
		JOINT Spine
		{
			OFFSET 0.02563 2.15732 -0.03270
			CHANNELS 3 Zrotation Yrotation Xrotation
			JOINT Spine1
			{
				OFFSET 0.00281 2.14662 0.09285
				CHANNELS 3 Zrotation Yrotation Xrotation
				JOINT Neck
				{
					OFFSET 0 0 0
					CHANNELS 3 Zrotation Yrotation Xrotation
					JOINT Neck1
					{
						OFFSET -0.04440 1.68397 0.17601
						CHANNELS 3 Zrotation Yrotation Xrotation
						JOINT Head
						{
							OFFSET 0.06040 1.66995 -0.35615
							CHANNELS 3 Zrotation Yrotation Xrotation
							End Site
							{
								OFFSET 0.02405 1.72189 -0.14044
							}
						}
					}
				}
				JOINT LeftShoulder
				{
					OFFSET 0 0 0
					CHANNELS 3 Zrotation Yrotation Xrotation
					JOINT LeftArm
					{
						OFFSET 2.98955 1.90907 -0.21660
						CHANNELS 3 Zrotation Yrotation Xrotation
						JOINT LeftForeArm
						{
							OFFSET 4.91377 -0.00000 0.00000
							CHANNELS 3 Zrotation Yrotation Xrotation
							JOINT LeftHand
							{
								OFFSET 3.00291 -0.00000 -0.00000
								CHANNELS 3 Zrotation Yrotation Xrotation
								JOINT LeftFingerBase
								{
									OFFSET 0 0 0
									CHANNELS 3 Zrotation Yrotation Xrotation
									JOINT LeftHandIndex1
									{
										OFFSET 0.45092 -0.00000 -0.00000
										CHANNELS 3 Zrotation Yrotation Xrotation
										End Site
										{
											OFFSET 0.36355 -0.00000 -0.00000
										}
									}
								}
								JOINT LThumb
								{
									OFFSET 0 0 0
									CHANNELS 3 Zrotation Yrotation Xrotation
									End Site
									{
										OFFSET 0.36910 -0.00000 0.36910
									}
								}
							}
						}
					}
				}
				JOINT RightShoulder
				{
					OFFSET 0 0 0
					CHANNELS 3 Zrotation Yrotation Xrotation
					JOINT RightArm
					{
						OFFSET -2.80452 1.90886 -0.21152
						CHANNELS 3 Zrotation Yrotation Xrotation
						JOINT RightForeArm
						{
							OFFSET -4.86725 -0.00000 0.00000
							CHANNELS 3 Zrotation Yrotation Xrotation
							JOINT RightHand
							{
								OFFSET -3.17144 -0.00000 -0.00000
								CHANNELS 3 Zrotation Yrotation Xrotation
								JOINT RightFingerBase
								{
									OFFSET 0 0 0
									CHANNELS 3 Zrotation Yrotation Xrotation
									JOINT RightHandIndex1
									{
										OFFSET -0.41937 -0.00000 -0.00000
										CHANNELS 3 Zrotation Yrotation Xrotation
										End Site
										{
											OFFSET -0.33810 -0.00000 -0.00000
										}
									}
								}
								JOINT RThumb
								{
									OFFSET 0 0 0
									CHANNELS 3 Zrotation Yrotation Xrotation
									End Site
									{
										OFFSET -0.34327 -0.00000 0.34327
									}
								}
							}
						}
					}
				}
			}
		}
	}
}
MOTION
Frames: 6
Frame Time: 0.016
0.00 0.00 0.00 175.3440 -1.4190 64.2834 0.0000 0.0000 0.0000 -17.0585 14.2032 39.2814 2.7974 10.3597 30.1494 3.6201 3.9380 35.1843 0.8414 5.8512 16.3532 0.0000 0.0000 0.0000 29.4706 6.7134 36.2971 -0.0068 -0.5338 1.4669 -0.2727 -15.2276 13.4573 -0.5283 -4.6576 12.9344 7.0628 -5.9716 36.7414 -8.4834 -4.2435 7.1415 -11.4746 -1.2641 -11.8063 0.2956 2.4986 -11.0205 -4.5507 7.1295 32.5217 -0.5399 3.7618 12.8701 -0.0000 -0.0000 0.0000 41.7936 -43.3551 59.7377 15.2625 -24.5105 -3.3341 -0.0000 0.0000 -86.0460 4.5932 22.5916 1.7678 -7.1250 0.0000 -0.0000 -24.3293 50.9720 -3.7708 -0.0000 -0.0000 0.0000 76.9778 -42.0269 -8.0123 -72.6526 58.8318 -45.0357 0.0000 0.0000 9.6430 -65.0773 23.3445 -40.4570 7.1250 -0.0000 -0.0000 -20.4128 13.2717 -26.0385
0.00 0.00 0.00 176.3080 -5.1830 62.4277 0.0000 0.0000 0.0000 -19.0519 12.2548 28.6921 3.4689 11.4179 33.7027 1.3733 6.0020 20.9961 1.3074 7.2430 20.4374 0.0000 0.0000 0.0000 33.2324 4.1998 40.3858 -0.3236 -3.6564 10.1119 -0.6465 -4.6621 14.3258 -0.3787 -3.9524 10.9427 4.6422 -5.6830 39.5582 -9.0233 -4.4179 7.2637 -10.6949 -1.0666 -12.4717 3.4149 2.4012 -11.4500 -4.5766 6.7528 35.4022 -1.0712 4.1690 14.3346 0.0000 0.0000 0.0000 52.8440 -39.9702 36.8792 14.0749 -22.8416 -2.8571 -0.0000 0.0000 -60.8170 4.9236 20.2330 1.7065 -7.1250 0.0000 -0.0000 -22.8298 48.8645 -2.2851 0.0000 0.0000 0.0000 77.7325 -40.4913 10.3322 -43.2197 49.8659 -20.8686 0.0000 0.0000 1.9910 -58.4023 19.6047 -28.6099 7.1250 -0.0000 -0.0000 -17.9513 2.7909 -19.7819
0.00 0.00 0.00 175.3250 -10.6377 65.9135 0.0000 0.0000 0.0000 -19.9340 2.8746 22.5657 2.1762 9.2238 26.4978 -1.0773 18.0346 -5.6540 1.7768 8.3849 23.8893 0.0000 0.0000 0.0000 30.0873 -3.6880 38.8735 -0.8199 -5.7778 16.1410 -3.6172 -10.5253 34.4596 -0.5727 -4.8463 13.4707 3.3524 -1.9703 34.1667 -6.9763 -3.8393 6.0957 -7.6412 -2.6969 -11.4498 -1.7909 3.1083 -7.9220 -3.3806 8.8156 33.7345 0.5028 4.8638 12.6390 -0.0000 -0.0000 0.0000 65.0970 -29.3981 -6.5362 11.0655 -18.3885 -1.7965 -0.0000 0.0000 -9.5740 10.2187 3.3708 0.6073 -7.1250 0.0000 -0.0000 -13.2921 33.1862 3.9397 -0.0000 -0.0000 0.0000 77.1980 -23.6449 0.8378 -8.5506 14.4414 -1.0853 0.0000 -0.0000 -9.6440 -13.3347 -17.1496 3.9980 7.1250 -0.0000 -0.0000 13.8763 -47.0877 -0.7284
0.00 0.00 0.00 175.7540 -10.9654 63.4440 0.0000 0.0000 0.0000 -18.6632 4.3253 29.8934 2.3554 9.5700 27.5953 -0.3212 13.3886 4.6263 1.6943 8.1979 23.3168 0.0000 0.0000 0.0000 32.3970 -2.1166 34.4377 -0.9845 -6.3158 17.7034 -2.1671 -11.4878 26.5223 -0.7065 -5.3723 14.9735 3.9282 -2.1622 37.1288 -5.4545 -3.7555 6.3051 -6.2376 -2.7054 -12.0332 -2.2358 3.5415 -8.4866 -5.1341 10.7501 34.6539 0.2753 5.6434 13.3347 0.0000 -0.0000 0.0000 66.7771 -26.0915 -21.5866 9.4224 -15.8311 -1.3130 -0.0000 -0.0000 4.0430 11.5650 -0.6822 -0.1396 -7.1250 0.0000 -0.0000 -11.6822 29.1894 4.5882 0.0000 -0.0000 0.0000 76.5255 -19.8770 -35.2825 -5.0160 8.6115 -0.3779 0.0000 0.0000 22.1800 -6.9409 -17.1596 2.0570 7.1250 -0.0000 -0.0000 19.6853 -46.2714 -0.6423
0.00 0.00 0.00 176.3950 -11.8032 64.5474 0.0000 0.0000 0.0000 -17.8944 5.7891 37.3144 2.5023 9.8421 28.4668 1.6652 6.1824 23.1835 2.0276 8.9234 25.5559 0.0000 0.0000 0.0000 33.9795 2.2241 28.0008 -0.5979 -4.9502 13.7665 -0.9401 -11.9092 18.0321 -0.3110 -3.5849 9.9117 4.5122 -1.7233 35.6254 -2.6232 -2.4519 6.2711 -4.0754 -2.0072 -11.1290 -2.5777 8.4388 -9.6026 -7.6484 12.8995 35.4899 -1.2990 2.1185 14.1720 -0.0000 0.0000 0.0000 67.9567 -21.4289 -46.0081 7.9245 -13.4305 -0.9345 -0.0000 -0.0000 30.6380 15.3234 -9.3931 -2.5606 -7.1250 0.0000 -0.0000 -8.3126 20.2950 4.9652 -0.0000 0.0000 0.0000 73.4664 -18.1626 -76.6960 -4.0826 7.0299 -0.2509 0.0000 0.0000 62.9050 -7.1600 -15.9574 1.9780 7.1250 -0.0000 -0.0000 19.0391 -45.1607 -0.0784
0.00 0.00 0.00 179.1920 -14.4591 62.5664 0.0000 0.0000 0.0000 -15.2074 8.1099 37.5261 4.2047 12.4279 37.2630 3.8969 6.0554 36.2205 1.5376 7.8279 22.1926 0.0000 0.0000 0.0000 31.1485 0.4005 33.9263 0.0000 -0.0000 0.0000 -0.1690 -14.1125 11.7917 -0.3148 -3.6068 9.9731 0.9094 -0.6102 37.0840 -0.3002 -2.0966 6.2038 0.2223 -1.7453 -11.5223 -4.3209 8.9706 -10.7754 -8.7263 14.6557 35.5223 -1.1562 2.4019 14.5386 0.0000 -0.0000 0.0000 69.5477 -17.4372 -64.5291 7.6728 -13.0210 -0.8769 -0.0000 -0.0000 41.3070 17.7108 -14.7679 -4.6538 -7.1250 0.0000 -0.0000 -6.6589 14.5846 4.8006 0.0000 -0.0000 0.0000 68.9994 -15.4582 -111.9928 -4.7490 8.1604 -0.3390 0.0000 0.0000 100.2530 -4.3849 -13.8974 1.0551 7.1250 -0.0000 -0.0000 20.7305 -42.9127 1.1199
